REM MD5 856dad58b9acd35641651cf37e1e7a84
FILE "Shadow Madness (Italy) (Disc 1).bin" BINARY
  TRACK 01 MODE2/2352
    INDEX 01 00:00:00
  TRACK 02 AUDIO
    INDEX 00 63:20:47
    INDEX 01 63:22:47
  TRACK 03 AUDIO
    INDEX 00 67:27:33
    INDEX 01 67:29:33
REM LEADOUT 70:37:10
